HIERARCHY
ROOT Hips
{
  OFFSET 13.6774 106.653 -34.4427
  CHANNELS 6 Xposition Yposition Zposition Zrotation Xrotation Yrotation
  JOINT ToSpine
  {
    OFFSET -2.69724 7.43032 -0.144315
    CHANNELS 3 Zrotation Xrotation Yrotation
    JOINT Spine
    {
      OFFSET -0.0310711 10.7595 1.96963
      CHANNELS 3 Zrotation Xrotation Yrotation
      JOINT Spine1
      {
        OFFSET 19.9056 3.91189 0.764692
        CHANNELS 3 Zrotation Xrotation Yrotation
        JOINT Neck
        {
          OFFSET 25.9749 7.03908 -0.130764
          CHANNELS 3 Zrotation Xrotation Yrotation
          JOINT Head
          {
            OFFSET 9.52751 0.295786 -0.907742
            CHANNELS 3 Zrotation Xrotation Yrotation
            End Site
            {
              OFFSET 16.4037 0.713936 2.7358
            }
          }
        }
        JOINT LeftShoulder
        {
          OFFSET 17.7449 4.33886 11.7777
          CHANNELS 3 Zrotation Xrotation Yrotation
          JOINT LeftArm
          {
            OFFSET 0.911315 1.27913 9.80584
            CHANNELS 3 Zrotation Xrotation Yrotation
            JOINT LeftForeArm
            {
              OFFSET 28.6126 1.18197 -3.53199
              CHANNELS 3 Zrotation Xrotation Yrotation
              JOINT LeftHand
              {
                OFFSET 27.5088 0.0218783 0.327423
                CHANNELS 3 Zrotation Xrotation Yrotation
                End Site
                {
                  OFFSET 18.6038 -0.000155887 0.382096
                }
              }
            }
          }
        }
        JOINT RightShoulder
        {
          OFFSET 17.1009 2.89543 -12.2328
          CHANNELS 3 Zrotation Xrotation Yrotation
          JOINT RightArm
          {
            OFFSET 1.4228 0.178766 -10.211
            CHANNELS 3 Zrotation Xrotation Yrotation
            JOINT RightForeArm
            {
              OFFSET 28.733 1.87905 2.64907
              CHANNELS 3 Zrotation Xrotation Yrotation
              JOINT RightHand
              {
                OFFSET 27.4588 0.290562 -0.101845
                CHANNELS 3 Zrotation Xrotation Yrotation
                End Site
                {
                  OFFSET 17.8396 -0.255518 -0.000602873
                }
              }
            }
          }
        }
      }
    }
  }
  JOINT LeftUpLeg
  {
    OFFSET -5.61296 -2.22332 -10.2353
    CHANNELS 3 Zrotation Xrotation Yrotation
    JOINT LeftLeg
    {
      OFFSET 2.56703 -44.7417 -7.93097
      CHANNELS 3 Zrotation Xrotation Yrotation
      JOINT LeftFoot
      {
        OFFSET 3.16933 -46.5642 -3.96578
        CHANNELS 3 Zrotation Xrotation Yrotation
        JOINT LeftToeBase
        {
          OFFSET 0.346054 -6.02161 12.8035
          CHANNELS 3 Zrotation Xrotation Yrotation
          End Site
          {
            OFFSET 0.134235 -1.35082 5.13018
          }
        }
      }
    }
  }
  JOINT RightUpLeg
  {
    OFFSET -5.7928 -1.72406 10.6446
    CHANNELS 3 Zrotation Xrotation Yrotation
    JOINT RightLeg
    {
      OFFSET -2.57161 -44.7178 -7.85259
      CHANNELS 3 Zrotation Xrotation Yrotation
      JOINT RightFoot
      {
        OFFSET -3.10148 -46.5936 -4.03391
        CHANNELS 3 Zrotation Xrotation Yrotation
        JOINT RightToeBase
        {
          OFFSET -0.0828122 -6.13587 12.8035
          CHANNELS 3 Zrotation Xrotation Yrotation
          End Site
          {
            OFFSET -0.131328 -1.35082 5.13018
          }
        }
      }
    }
  }
}
MOTION
Frames: 14
Frame Time: 0.03333333333333333
0.0000 93.1000 0.0000 -57.0070 -51.4344 -151.9989 -70.9923 0.6234 88.0102 104.7121 72.2858 -14.6557 1.0805 21.4202 4.9166 -135.3746 20.2863 -179.4608 -140.3498 56.9071 -176.2226 -3.9051 -15.7804 -27.2310 -80.9468 15.9834 -113.9144 7.0853 8.3407 -40.4201 0.7754 1.7365 -1.3576 -4.5749 8.0822 36.7684 -50.2567 -35.2433 119.2122 -7.4974 -1.5812 102.0921 -1.3765 -2.0125 -2.6378 -27.1490 14.2797 109.1998 -2.7151 56.3549 8.7084 -0.2751 -17.4321 -0.7117 -1.2472 -1.1328 11.4775 -50.1191 -18.2399 85.5934 1.0238 55.1436 -12.9580 -4.8572 0.1223 1.3801 -0.6367 -24.0315 -8.9815 
0.0000 93.1000 0.0000 -50.9744 -59.4735 -144.2903 -71.0013 -1.3784 88.0122 104.0598 73.1620 -14.5119 0.7595 22.0052 5.9645 -133.1785 21.2844 177.8027 -144.4583 59.1782 -173.4859 -1.2177 -16.3892 -27.7541 -81.0509 18.9497 -120.8780 4.3572 4.4406 -48.4039 0.0682 -0.6360 0.2741 -3.2948 8.3715 37.0277 -56.8824 -35.6897 119.0630 -6.3476 -1.7508 97.6447 0.0714 0.9134 0.4364 -29.1467 9.0490 103.4547 -3.4188 54.6885 5.4905 0.7335 -17.4045 -1.2380 -2.3167 -2.8032 14.4301 -47.8196 -15.0352 87.2825 2.9171 63.7197 -11.0151 -7.7295 3.1508 0.1375 1.6117 -15.3691 -21.9526 
0.0000 93.1000 0.0000 -43.8795 -64.9927 -136.3395 -70.9971 -1.1252 88.0105 104.9721 73.9125 -17.6045 0.4337 23.0729 5.8540 -130.1658 22.3272 174.5283 -147.3317 61.0320 -169.9053 -0.8286 -16.9683 -27.5088 -81.0684 22.9716 -127.7236 5.2000 3.5808 -57.8182 0.0746 -0.5723 0.2349 -3.1338 8.8497 36.9834 -63.8443 -34.7802 118.7734 -3.5323 -1.0452 92.9253 0.2116 0.6856 0.3066 -31.1603 5.9161 102.5475 -3.8116 54.4109 2.4384 0.9819 -18.7440 -1.4909 -3.1071 -0.7450 11.7457 -44.9979 -12.8375 86.6447 6.8705 71.3333 -9.8901 -11.5898 0.9173 0.8315 2.0058 -21.6771 -15.9680 
0.0000 93.1000 0.0000 -30.9225 -70.0276 -122.1731 -70.9949 -0.2602 88.0067 109.1010 73.9290 -21.8246 -0.4867 23.6066 5.5646 -129.3127 23.0567 173.9812 -151.4741 62.6307 -166.7812 -0.4547 -16.8265 -26.8500 -79.0027 25.9014 -132.7413 7.0224 3.1884 -66.0162 0.0825 0.0039 -0.0413 -2.8854 8.9514 36.3534 -71.0673 -33.3015 117.8445 -2.9279 -0.1315 87.8434 -0.0722 0.0368 0.0608 -33.8358 3.8773 102.0933 -3.9804 51.2523 -1.7117 1.4134 -17.8725 -1.8596 -2.5630 0.2943 10.6929 -41.9905 -11.5840 84.1302 9.7816 72.0360 -6.1273 -8.6588 -3.4880 0.9909 2.3265 -22.0005 -17.6036 
0.0000 93.1000 0.0000 -8.0281 -73.1228 -98.2155 -70.9986 -0.5178 88.0061 112.1022 73.6903 -25.0087 -1.8593 23.9957 4.7672 -127.1879 24.1638 171.1204 -154.1550 64.0876 -164.0867 -0.0144 -16.0526 -25.7287 -76.1732 28.6126 -136.8963 9.3736 2.0272 -75.2594 -0.0286 -0.3697 0.0865 -2.9391 9.2958 36.9735 -78.9011 -30.7152 115.9697 -2.2355 0.3025 83.6430 0.3577 0.3187 0.4825 -34.9275 2.1965 99.8430 -4.3152 50.3067 -4.9819 2.4536 -16.9194 -1.9463 -1.8143 -1.8690 10.7707 -38.2937 -12.2529 79.8041 8.0209 70.1946 -6.7736 -8.7958 -7.1472 0.8860 1.8558 -22.7633 -13.4469 
0.0000 93.1000 0.0000 16.0633 -72.1048 -73.2237 -71.0016 -0.3185 88.0084 117.0955 73.5521 -28.0477 -2.6968 23.9597 4.7973 -125.3431 24.4670 170.1507 -159.4360 65.0842 -159.1212 -0.2409 -15.7016 -23.9265 -74.0946 30.6052 -140.7216 13.1044 0.7405 -83.2661 -0.3663 -0.2037 0.1334 -3.2180 9.6335 38.3571 -85.8820 -26.6579 114.0177 0.1076 -0.6595 79.8622 0.1469 0.1829 0.3787 -36.0198 0.1368 96.8767 -4.5210 49.2312 -8.0867 3.0704 -16.5652 -1.7472 -1.1976 -3.6632 11.4595 -35.0097 -12.7441 77.4586 5.0425 64.9962 -4.0827 -7.9888 -10.7696 0.8373 2.0416 -19.1885 -18.5336 
0.0000 93.1000 0.0000 35.1635 -69.0944 -51.9979 -71.0044 -0.0553 88.0083 115.8936 73.8288 -29.4624 -3.5511 24.2350 5.5807 -125.3574 25.5632 168.2626 -163.1137 67.0802 -157.1573 -0.4425 -16.0034 -24.4121 -74.9332 30.4931 -140.7717 15.7202 -0.4625 -89.0789 -0.5362 0.0485 0.0700 -3.2332 9.9792 36.8013 -94.0449 -24.5164 112.0546 3.7258 -1.9038 74.8734 0.0024 0.0224 0.1204 -36.8752 -1.4676 93.9265 -4.8993 50.0571 -10.6026 3.8363 -16.6484 -1.8339 -0.3859 -5.8633 12.9190 -31.9744 -12.9903 77.1040 3.0211 57.0873 -3.1807 -8.0790 -9.7086 0.7281 2.3038 -18.8464 -19.2352 
0.0000 93.1000 0.0000 45.9792 -65.0604 -40.0843 -71.0033 -0.3686 88.0089 118.9276 74.2517 -32.0943 -3.7684 24.8189 5.1467 -124.3566 26.3386 165.1483 -164.2653 68.7637 -156.9135 0.3934 -16.3348 -24.2813 -74.2266 30.8037 -142.7577 16.1170 -0.9680 -92.2534 -0.0905 -0.3296 0.0748 -2.7493 10.1243 36.0077 -101.0274 -19.4665 110.1101 5.3366 -2.2552 70.8436 0.0345 0.3831 0.6687 -36.8076 -1.7532 92.9521 -4.8389 51.2316 -11.8708 4.5625 -17.3802 -2.2976 -0.1455 -5.7933 13.5410 -31.0799 -13.2747 77.8113 1.9398 47.1376 -1.1844 -5.5160 -3.7543 0.0421 2.4647 -12.0894 -17.2221 
0.0000 93.1000 0.0000 55.1686 -60.2109 -30.0986 -71.0046 -0.2466 88.0107 116.9034 74.6544 -31.1666 -3.2134 24.9026 5.6524 -124.2851 26.8981 163.4341 -168.5366 69.9487 -154.3540 -0.1276 -16.7763 -23.8205 -74.9179 30.8189 -143.8077 15.1884 -1.7913 -94.2257 -0.1389 -0.1580 0.1391 -2.8867 10.0121 35.1972 -106.9958 -15.8361 107.9787 6.4621 -3.4024 66.7344 -0.0483 0.1634 0.4442 -37.0991 -1.5337 93.0238 -6.0493 53.3726 -12.0841 4.3008 -18.5201 -1.9266 -0.4802 -5.0142 14.3989 -31.1763 -13.7487 80.6044 2.1144 37.0558 3.6786 -2.7324 5.9970 -1.0519 1.8871 -9.0887 -14.9252 
0.0000 93.1000 0.0000 61.9558 -53.2378 -21.9038 -71.0048 -0.2529 88.0092 114.9599 74.6537 -28.9820 -2.2444 24.2455 6.2454 -122.4363 27.6913 159.2682 -169.9132 71.4905 -153.4725 0.3104 -17.2107 -23.1665 -76.0551 31.4346 -143.7321 17.1167 -2.1351 -96.2003 0.0364 -0.2416 0.1492 -2.6193 9.9173 36.6155 -111.7892 -9.9917 107.0601 9.2221 -5.8325 62.1588 -0.0030 0.2940 0.5044 -36.7199 -0.3743 95.1676 -6.3795 55.2087 -11.5188 4.1752 -19.1234 -2.0826 0.6989 -7.9699 15.8028 -32.7432 -14.6377 81.5508 1.8647 27.8731 11.7843 0.5245 15.5554 -1.8544 2.0456 -8.7267 -15.2660 
0.0000 93.1000 0.0000 65.9650 -46.0296 -16.0175 -71.0087 -0.4977 88.0096 108.8534 74.5514 -24.2943 -1.2040 23.8465 6.0002 -121.2773 28.3079 155.1390 -168.9274 72.9612 -155.5324 -0.4691 -18.0626 -23.9865 -76.0828 30.2066 -143.7711 17.4707 -2.7904 -96.3493 0.2052 -0.3604 0.2064 -2.9957 9.3226 38.1936 -115.8875 -5.0629 105.9257 9.8177 -7.0919 57.9085 0.1149 0.4488 0.5029 -37.0152 0.7132 96.9606 -5.8637 56.5026 -8.8564 3.7482 -19.2060 -1.4969 0.9423 -7.8330 17.1202 -35.0617 -17.0494 81.0478 0.9804 24.3470 13.8577 3.4194 19.3493 -2.7594 1.9425 -3.3981 -15.9310 
0.0000 93.1000 0.0000 70.0667 -38.9104 -9.9054 -71.0064 -0.2388 88.0113 107.8954 74.0269 -22.8116 -0.5505 23.0573 6.0701 -121.3011 28.7104 155.3416 -177.3979 74.3172 -147.4085 -0.3028 -18.1807 -24.7489 -75.0779 27.9450 -143.6788 17.3331 -2.9132 -96.4177 0.0240 -0.1781 0.0689 -2.7883 8.6652 39.7497 -118.9264 -0.1260 103.9494 8.5461 -7.3270 52.9503 0.1428 0.3088 0.4475 -36.9716 2.9917 97.7919 -5.7403 58.1148 -7.7390 4.4381 -19.7794 -1.8826 2.1611 -9.9661 17.4724 -36.9952 -19.4352 79.7270 1.9350 26.3485 11.8772 4.1417 20.2935 -2.8784 2.2034 -4.1432 -12.9616 
0.0000 93.1000 0.0000 71.0113 -33.0984 -6.9997 -71.0095 -0.4564 88.0129 104.9154 74.0259 -20.7168 0.0494 22.4598 6.1455 -120.2496 29.2584 151.6519 -175.3834 75.7298 -149.4371 0.1238 -18.7396 -24.6057 -74.0418 26.8779 -144.7168 17.2567 -2.5366 -96.0045 0.1198 -0.5276 0.1700 -2.7596 8.1510 41.0621 -122.8219 3.0683 102.8511 8.2358 -7.7921 50.8032 0.4758 0.6353 0.6605 -36.0343 6.0100 97.0037 -6.9153 61.0998 -7.0324 5.0868 -19.7685 -2.2333 3.7282 -12.9584 19.7662 -38.0748 -21.2802 75.8501 2.3866 32.0499 7.2617 -0.3257 15.2342 -2.0283 1.7740 -8.9100 -5.8365 
0.0000 93.1000 0.0000 73.0026 -29.4483 -3.7556 -71.0135 -0.7198 88.0148 105.7052 73.9761 -21.7640 -0.4145 22.4318 6.2928 -119.3211 29.9524 149.5436 -176.2037 76.8436 -148.5206 -0.8154 -19.0188 -24.7958 -72.1134 26.6729 -144.8500 17.7104 -3.2636 -96.0356 -0.0618 -0.5641 0.0838 -3.4913 8.0191 43.1838 -126.0046 5.6575 101.9711 8.7735 -8.9716 47.5386 0.5849 0.5886 0.0955 -34.6845 9.0017 97.1281 -7.6073 63.4095 -5.8026 4.3512 -20.2518 -1.6693 4.7272 -14.8057 22.9579 -38.8080 -22.7391 70.4607 1.7971 38.7992 3.2710 -5.2909 9.6374 -1.0938 0.4206 -13.6784 5.0802 
